<mxfile host="app.diagrams.net" modified="2024-01-09T07:17:09.786Z" agent="Mozilla/5.0 (Windows NT 10.0; Win64; x64) AppleWebKit/537.36 (KHTML, like Gecko) Chrome/92.0.4515.159 Safari/537.36" etag="W_1J7QP04IEPRSefdV41" version="22.1.16" type="github">
  <diagram name="第 1 页" id="hYhgGBlUnKRzyXHNce_o">
    <mxGraphModel dx="1050" dy="558" grid="0" gridSize="10" guides="1" tooltips="1" connect="1" arrows="1" fold="1" page="1" pageScale="1" pageWidth="827" pageHeight="1169" math="0" shadow="0">
      <root>
        <mxCell id="0" />
        <mxCell id="1" parent="0" />
        <mxCell id="qAKV_GTcZjEODW5V4dYa-78" value="" style="group;fillColor=#dae8fc;strokeColor=#6c8ebf;" vertex="1" connectable="0" parent="1">
          <mxGeometry x="56" y="109" width="80" height="109" as="geometry" />
        </mxCell>
        <mxCell id="qAKV_GTcZjEODW5V4dYa-74" value="len" style="rounded=0;whiteSpace=wrap;html=1;fillColor=#dae8fc;strokeColor=#6c8ebf;" vertex="1" parent="qAKV_GTcZjEODW5V4dYa-78">
          <mxGeometry y="36.666666666666686" width="80" height="36.66666666666667" as="geometry" />
        </mxCell>
        <mxCell id="qAKV_GTcZjEODW5V4dYa-75" value="p" style="rounded=0;whiteSpace=wrap;html=1;fillColor=#dae8fc;strokeColor=#6c8ebf;" vertex="1" parent="qAKV_GTcZjEODW5V4dYa-78">
          <mxGeometry width="80" height="36.66666666666667" as="geometry" />
        </mxCell>
        <mxCell id="qAKV_GTcZjEODW5V4dYa-76" value="cap" style="rounded=0;whiteSpace=wrap;html=1;fillColor=#dae8fc;strokeColor=#6c8ebf;" vertex="1" parent="qAKV_GTcZjEODW5V4dYa-78">
          <mxGeometry y="72.33333333333334" width="80" height="36.66666666666667" as="geometry" />
        </mxCell>
        <mxCell id="qAKV_GTcZjEODW5V4dYa-81" value="" style="group;fillColor=#dae8fc;strokeColor=#6c8ebf;" vertex="1" connectable="0" parent="1">
          <mxGeometry x="279" y="95" width="120" height="120" as="geometry" />
        </mxCell>
        <mxCell id="qAKV_GTcZjEODW5V4dYa-79" value="内存地址0xc00000c360" style="rounded=0;whiteSpace=wrap;html=1;fillColor=#ffe6cc;strokeColor=#d79b00;" vertex="1" parent="qAKV_GTcZjEODW5V4dYa-81">
          <mxGeometry width="120" height="60" as="geometry" />
        </mxCell>
        <mxCell id="qAKV_GTcZjEODW5V4dYa-80" value="[ ]int{1,2,3,4,5,6}" style="rounded=0;whiteSpace=wrap;html=1;fillColor=#dae8fc;strokeColor=#6c8ebf;" vertex="1" parent="qAKV_GTcZjEODW5V4dYa-81">
          <mxGeometry y="60" width="120" height="60" as="geometry" />
        </mxCell>
        <mxCell id="qAKV_GTcZjEODW5V4dYa-82" value="" style="endArrow=classic;html=1;rounded=0;entryX=0;entryY=0.5;entryDx=0;entryDy=0;" edge="1" parent="1" source="qAKV_GTcZjEODW5V4dYa-75" target="qAKV_GTcZjEODW5V4dYa-79">
          <mxGeometry width="50" height="50" relative="1" as="geometry">
            <mxPoint x="166" y="315" as="sourcePoint" />
            <mxPoint x="216" y="265" as="targetPoint" />
          </mxGeometry>
        </mxCell>
        <mxCell id="qAKV_GTcZjEODW5V4dYa-83" value="main 中的s" style="text;html=1;strokeColor=none;fillColor=none;align=center;verticalAlign=middle;whiteSpace=wrap;rounded=0;" vertex="1" parent="1">
          <mxGeometry x="45" y="73" width="106" height="30" as="geometry" />
        </mxCell>
        <mxCell id="qAKV_GTcZjEODW5V4dYa-91" value="s = [ ]int{6,6,6} 之后" style="text;html=1;strokeColor=none;fillColor=none;align=center;verticalAlign=middle;whiteSpace=wrap;rounded=0;" vertex="1" parent="1">
          <mxGeometry x="275" y="245" width="133" height="31" as="geometry" />
        </mxCell>
        <mxCell id="qAKV_GTcZjEODW5V4dYa-94" value="" style="group;fillColor=#dae8fc;strokeColor=#6c8ebf;" vertex="1" connectable="0" parent="1">
          <mxGeometry x="556" y="333" width="80" height="109" as="geometry" />
        </mxCell>
        <mxCell id="qAKV_GTcZjEODW5V4dYa-95" value="len" style="rounded=0;whiteSpace=wrap;html=1;fillColor=#dae8fc;strokeColor=#6c8ebf;" vertex="1" parent="qAKV_GTcZjEODW5V4dYa-94">
          <mxGeometry y="36.666666666666686" width="80" height="36.66666666666667" as="geometry" />
        </mxCell>
        <mxCell id="qAKV_GTcZjEODW5V4dYa-96" value="p" style="rounded=0;whiteSpace=wrap;html=1;fillColor=#dae8fc;strokeColor=#6c8ebf;" vertex="1" parent="qAKV_GTcZjEODW5V4dYa-94">
          <mxGeometry width="80" height="36.66666666666667" as="geometry" />
        </mxCell>
        <mxCell id="qAKV_GTcZjEODW5V4dYa-97" value="cap" style="rounded=0;whiteSpace=wrap;html=1;fillColor=#dae8fc;strokeColor=#6c8ebf;" vertex="1" parent="qAKV_GTcZjEODW5V4dYa-94">
          <mxGeometry y="72.33333333333334" width="80" height="36.66666666666667" as="geometry" />
        </mxCell>
        <mxCell id="qAKV_GTcZjEODW5V4dYa-98" value="Assign1&amp;nbsp;中的s" style="text;html=1;strokeColor=none;fillColor=none;align=center;verticalAlign=middle;whiteSpace=wrap;rounded=0;" vertex="1" parent="1">
          <mxGeometry x="543" y="297" width="106" height="30" as="geometry" />
        </mxCell>
        <mxCell id="qAKV_GTcZjEODW5V4dYa-99" value="" style="group;fillColor=#dae8fc;strokeColor=#6c8ebf;" vertex="1" connectable="0" parent="1">
          <mxGeometry x="343" y="322" width="120" height="120" as="geometry" />
        </mxCell>
        <mxCell id="qAKV_GTcZjEODW5V4dYa-100" value="内存地址0xc00000c330" style="rounded=0;whiteSpace=wrap;html=1;fillColor=#ffe6cc;strokeColor=#d79b00;" vertex="1" parent="qAKV_GTcZjEODW5V4dYa-99">
          <mxGeometry width="120" height="60" as="geometry" />
        </mxCell>
        <mxCell id="qAKV_GTcZjEODW5V4dYa-101" value="[ ]int{6,6,6}" style="rounded=0;whiteSpace=wrap;html=1;fillColor=#dae8fc;strokeColor=#6c8ebf;" vertex="1" parent="qAKV_GTcZjEODW5V4dYa-99">
          <mxGeometry y="60" width="120" height="60" as="geometry" />
        </mxCell>
        <mxCell id="qAKV_GTcZjEODW5V4dYa-104" value="" style="group;fillColor=#dae8fc;strokeColor=#6c8ebf;" vertex="1" connectable="0" parent="1">
          <mxGeometry x="554" y="109" width="80" height="109" as="geometry" />
        </mxCell>
        <mxCell id="qAKV_GTcZjEODW5V4dYa-105" value="len" style="rounded=0;whiteSpace=wrap;html=1;fillColor=#dae8fc;strokeColor=#6c8ebf;" vertex="1" parent="qAKV_GTcZjEODW5V4dYa-104">
          <mxGeometry y="36.666666666666686" width="80" height="36.66666666666667" as="geometry" />
        </mxCell>
        <mxCell id="qAKV_GTcZjEODW5V4dYa-106" value="p" style="rounded=0;whiteSpace=wrap;html=1;fillColor=#dae8fc;strokeColor=#6c8ebf;" vertex="1" parent="qAKV_GTcZjEODW5V4dYa-104">
          <mxGeometry width="80" height="36.66666666666667" as="geometry" />
        </mxCell>
        <mxCell id="qAKV_GTcZjEODW5V4dYa-107" value="cap" style="rounded=0;whiteSpace=wrap;html=1;fillColor=#dae8fc;strokeColor=#6c8ebf;" vertex="1" parent="qAKV_GTcZjEODW5V4dYa-104">
          <mxGeometry y="72.33333333333334" width="80" height="36.66666666666667" as="geometry" />
        </mxCell>
        <mxCell id="qAKV_GTcZjEODW5V4dYa-108" value="Assign1&amp;nbsp;中的s" style="text;html=1;strokeColor=none;fillColor=none;align=center;verticalAlign=middle;whiteSpace=wrap;rounded=0;" vertex="1" parent="1">
          <mxGeometry x="541" y="68" width="106" height="30" as="geometry" />
        </mxCell>
        <mxCell id="qAKV_GTcZjEODW5V4dYa-109" value="调用Assign1之后" style="text;html=1;strokeColor=none;fillColor=none;align=center;verticalAlign=middle;whiteSpace=wrap;rounded=0;" vertex="1" parent="1">
          <mxGeometry x="278" y="32" width="121" height="28" as="geometry" />
        </mxCell>
        <mxCell id="qAKV_GTcZjEODW5V4dYa-111" value="" style="group;fillColor=#dae8fc;strokeColor=#6c8ebf;" vertex="1" connectable="0" parent="1">
          <mxGeometry x="54" y="333" width="80" height="109" as="geometry" />
        </mxCell>
        <mxCell id="qAKV_GTcZjEODW5V4dYa-112" value="len" style="rounded=0;whiteSpace=wrap;html=1;fillColor=#dae8fc;strokeColor=#6c8ebf;" vertex="1" parent="qAKV_GTcZjEODW5V4dYa-111">
          <mxGeometry y="36.666666666666686" width="80" height="36.66666666666667" as="geometry" />
        </mxCell>
        <mxCell id="qAKV_GTcZjEODW5V4dYa-113" value="p" style="rounded=0;whiteSpace=wrap;html=1;fillColor=#dae8fc;strokeColor=#6c8ebf;" vertex="1" parent="qAKV_GTcZjEODW5V4dYa-111">
          <mxGeometry width="80" height="36.66666666666667" as="geometry" />
        </mxCell>
        <mxCell id="qAKV_GTcZjEODW5V4dYa-114" value="cap" style="rounded=0;whiteSpace=wrap;html=1;fillColor=#dae8fc;strokeColor=#6c8ebf;" vertex="1" parent="qAKV_GTcZjEODW5V4dYa-111">
          <mxGeometry y="72.33333333333334" width="80" height="36.66666666666667" as="geometry" />
        </mxCell>
        <mxCell id="qAKV_GTcZjEODW5V4dYa-115" value="" style="group;fillColor=#dae8fc;strokeColor=#6c8ebf;" vertex="1" connectable="0" parent="1">
          <mxGeometry x="211" y="322" width="120" height="120" as="geometry" />
        </mxCell>
        <mxCell id="qAKV_GTcZjEODW5V4dYa-116" value="内存地址0xc00000c360" style="rounded=0;whiteSpace=wrap;html=1;fillColor=#ffe6cc;strokeColor=#d79b00;" vertex="1" parent="qAKV_GTcZjEODW5V4dYa-115">
          <mxGeometry width="120" height="60" as="geometry" />
        </mxCell>
        <mxCell id="qAKV_GTcZjEODW5V4dYa-117" value="[ ]int{1,2,3,4,5,6}" style="rounded=0;whiteSpace=wrap;html=1;fillColor=#dae8fc;strokeColor=#6c8ebf;" vertex="1" parent="qAKV_GTcZjEODW5V4dYa-115">
          <mxGeometry y="60" width="120" height="60" as="geometry" />
        </mxCell>
        <mxCell id="qAKV_GTcZjEODW5V4dYa-118" value="" style="endArrow=classic;html=1;rounded=0;entryX=0;entryY=0.5;entryDx=0;entryDy=0;" edge="1" parent="1" source="qAKV_GTcZjEODW5V4dYa-113" target="qAKV_GTcZjEODW5V4dYa-116">
          <mxGeometry width="50" height="50" relative="1" as="geometry">
            <mxPoint x="131" y="543" as="sourcePoint" />
            <mxPoint x="181" y="493" as="targetPoint" />
          </mxGeometry>
        </mxCell>
        <mxCell id="qAKV_GTcZjEODW5V4dYa-119" value="main 中的s" style="text;html=1;strokeColor=none;fillColor=none;align=center;verticalAlign=middle;whiteSpace=wrap;rounded=0;" vertex="1" parent="1">
          <mxGeometry x="41" y="297" width="106" height="30" as="geometry" />
        </mxCell>
        <mxCell id="qAKV_GTcZjEODW5V4dYa-120" style="edgeStyle=orthogonalEdgeStyle;rounded=0;orthogonalLoop=1;jettySize=auto;html=1;" edge="1" parent="1" source="qAKV_GTcZjEODW5V4dYa-106">
          <mxGeometry relative="1" as="geometry">
            <mxPoint x="401" y="127" as="targetPoint" />
          </mxGeometry>
        </mxCell>
        <mxCell id="qAKV_GTcZjEODW5V4dYa-121" style="edgeStyle=orthogonalEdgeStyle;rounded=0;orthogonalLoop=1;jettySize=auto;html=1;entryX=1;entryY=0.5;entryDx=0;entryDy=0;" edge="1" parent="1" source="qAKV_GTcZjEODW5V4dYa-96" target="qAKV_GTcZjEODW5V4dYa-100">
          <mxGeometry relative="1" as="geometry" />
        </mxCell>
      </root>
    </mxGraphModel>
  </diagram>
</mxfile>
